<svg width="83" height="76" viewBox="0 0 83 76" fill="none" xmlns="http://www.w3.org/2000/svg">
<g opacity="0.3" clip-path="url(#clip0_1_506)">
<path d="M37.2536 20.2083L65.1344 60.0556L69.6881 57.4306L40.0473 18.2361" fill="white"/>
<path d="M35.1584 11.7639L30.9819 6.23611L28.691 7.97223L32.6581 13.6389" fill="white"/>
<path d="M30.6466 7.31944L25.0034 0L29.6269 7.91667L30.6466 7.31944Z" fill="white"/>
<path d="M21.7068 37.7639L64.9668 60.2361L62.9135 65.0556L20.0865 40.7639" fill="white"/>
<path d="M13.0185 36.75L6.97021 33.3194L8.42293 30.8472L14.569 34.0555" fill="white"/>
<path d="M78.0692 68.7361L75.4291 71.7222L80.0247 75.75C80.4577 76.125 81.1003 76.0833 81.4774 75.6528L82.7486 74.2222C83.1257 73.7917 83.0838 73.1528 82.6508 72.7778L78.0692 68.7361Z" fill="white"/>
<path d="M8.01784 32.8611L0 28.2083L8.4788 31.7778L8.01784 32.8611Z" fill="white"/>
<path d="M63.2068 58.375C66.9922 54.0972 73.5713 53.6944 77.8596 57.4583C82.1619 61.2222 82.567 67.7639 78.7815 72.0278C74.9961 76.3056 68.417 76.7083 64.1287 72.9444C59.8404 69.1806 59.4214 62.6389 63.2068 58.375ZM74.9402 68.6528C76.8539 66.4861 76.6444 63.1806 74.4793 61.2778C72.3002 59.375 68.9757 59.5833 67.0621 61.75C65.1484 63.9167 65.3579 67.2222 67.537 69.125C69.7021 71.0278 73.0266 70.8194 74.9402 68.6528Z" fill="white"/>
<path d="M32.5044 12.5139C34.3901 10.3889 37.6727 10.1806 39.8238 12.0556C41.961 13.9306 42.1705 17.1944 40.2848 19.3194C38.399 21.4444 35.1165 21.6528 32.9653 19.7778C30.8282 17.9028 30.6187 14.6389 32.5044 12.5139ZM38.9997 18.1944C40.2708 16.7639 40.1311 14.5833 38.6924 13.3194C37.2536 12.0556 35.0606 12.1944 33.7895 13.625C32.5184 15.0556 32.658 17.2361 34.0968 18.5C35.5355 19.7639 37.7286 19.625 38.9997 18.1944Z" fill="white"/>
<path d="M13.4236 34.0417C15.3093 31.9167 18.5919 31.7083 20.743 33.5833C22.8802 35.4583 23.0897 38.7222 21.204 40.8611C19.3182 42.9861 16.0357 43.1944 13.8985 41.3194C11.7474 39.4306 11.5379 36.1667 13.4236 34.0417ZM19.9189 39.7222C21.19 38.2917 21.0503 36.1111 19.6116 34.8472C18.1728 33.5833 15.9798 33.7222 14.7087 35.1528C13.4375 36.5833 13.5772 38.7639 15.016 40.0278C16.4547 41.2917 18.6477 41.1528 19.9189 39.7222Z" fill="white"/>
<path d="M49.8531 46.7639C50.1325 46.6528 50.4677 46.7083 50.7192 46.9306L56.5719 52.0556C56.9211 52.3611 56.963 52.9028 56.6557 53.25C56.3344 53.6111 55.8036 53.6389 55.4544 53.3194L49.5877 48.1944C49.2385 47.8889 49.1966 47.3472 49.5039 47C49.6017 46.8889 49.7274 46.8055 49.8531 46.7639Z" fill="white"/>
<path d="M62.9973 37.7917C63.2767 37.6806 63.6119 37.7361 63.8634 37.9583C64.2126 38.2639 64.2545 38.8056 63.9332 39.1528L43.6791 62.0139C43.3718 62.3611 42.827 62.4028 42.4778 62.0833C42.1286 61.7778 42.0867 61.2361 42.4079 60.8889L62.676 38.0278C62.7598 37.9167 62.8716 37.8333 62.9973 37.7917Z" fill="white"/>
</g>
<defs>
<clipPath id="clip0_1_506">
<rect width="83" height="76" fill="white"/>
</clipPath>
</defs>
</svg>
