<svg width="80" height="80" viewBox="0 0 80 80" fill="none" xmlns="http://www.w3.org/2000/svg">
<g opacity="0.3" clip-path="url(#clip0_1_500)">
<path d="M75.7969 57.0475C80.129 47.949 67.614 32.9422 47.8439 23.529C28.0738 14.1158 8.53504 13.8607 4.20293 22.9593C-0.129182 32.0578 12.3858 47.0646 32.1559 56.4778C51.9261 65.891 71.4648 66.146 75.7969 57.0475Z" stroke="white" stroke-width="1.6987" stroke-miterlimit="10"/>
<path d="M57.1861 33.8927C64.5047 54.5363 62.7381 73.9937 53.2492 77.3502C43.7602 80.7066 30.1324 66.7256 22.8138 46.082C15.4952 25.4385 17.2618 5.98107 26.7507 2.6246C36.2397 -0.731864 49.8675 13.2744 57.1861 33.8927Z" stroke="white" stroke-width="1.6987" stroke-miterlimit="10"/>
<path d="M33.8927 22.8139C54.5362 15.4953 73.9936 17.2618 77.3501 26.7508C80.7066 36.2397 66.7255 49.8675 46.082 57.1861C25.4384 64.5047 5.98102 62.7382 2.62456 53.2492C-0.731909 43.7603 13.2744 30.1325 33.8927 22.8139Z" stroke="white" stroke-width="1.6987" stroke-miterlimit="10"/>
<path d="M43.4069 32.8328C47.3691 34.7256 49.0347 39.4448 47.1672 43.4069C45.2744 47.3691 40.5552 49.0347 36.593 47.1672C32.6309 45.2745 30.9653 40.5552 32.8328 36.5931C34.7255 32.6309 39.47 30.9653 43.4069 32.8328Z" stroke="white" stroke-width="1.6987" stroke-miterlimit="10"/>
</g>
<defs>
<clipPath id="clip0_1_500">
<rect width="80" height="80" fill="white"/>
</clipPath>
</defs>
</svg>
